<svg width="25" height="40" viewBox="0 0 25 40" fill="none" xmlns="http://www.w3.org/2000/svg">
<g clip-path="url(#clip0_3458_14954)">
<path d="M2.58104 0.717041C2.06512 0.717041 1.57032 0.921992 1.20551 1.28681C0.840693 1.65162 0.635742 2.14642 0.635742 2.66234V22.1154C0.635742 22.3708 0.686059 22.6238 0.783819 22.8598C0.88158 23.0958 1.02487 23.3103 1.20551 23.4909C1.38615 23.6715 1.60059 23.8148 1.83661 23.9126C2.07262 24.0104 2.32558 24.0607 2.58104 24.0607C2.83651 24.0607 3.08946 24.0104 3.32548 23.9126C3.5615 23.8148 3.77594 23.6715 3.95658 23.4909C4.13722 23.3103 4.28051 23.0958 4.37827 22.8598C4.47603 22.6238 4.52635 22.3708 4.52635 22.1154V2.66234C4.52635 2.14642 4.3214 1.65162 3.95658 1.28681C3.59177 0.921992 3.09697 0.717041 2.58104 0.717041Z" fill="#2F2F2F" stroke="#2F2F2F" stroke-width="0.92707" stroke-miterlimit="10"/>
<path d="M15.479 16.7272C13.6215 16.1399 11.6462 16.0283 9.73429 16.4028C9.37903 16.4732 9.05173 16.6448 8.79183 16.897C8.53193 17.1493 8.35054 17.4713 8.26951 17.8243L8.2417 17.9479C7.93268 19.2705 9.08843 20.5097 10.4157 20.2362C11.9251 19.9281 13.492 20.0751 14.9179 20.6584C16.3437 21.2417 17.5643 22.2351 18.425 23.5128C19.2857 24.7904 19.7478 26.2948 19.7528 27.8354C19.7577 29.3759 19.3052 30.8832 18.4527 32.1664C17.6002 33.4495 16.3859 34.4507 14.9638 35.0431C13.5418 35.6355 11.9758 35.7925 10.4645 35.4941C8.95309 35.1957 7.56431 34.4554 6.47407 33.367C5.38383 32.2786 4.6412 30.8911 4.34028 29.3802C4.27309 29.0202 4.10309 28.6874 3.85083 28.422C3.59857 28.1566 3.27485 27.9699 2.91877 27.8845L2.76426 27.849C2.45925 27.7794 2.14171 27.787 1.84036 27.871C1.53901 27.955 1.26336 28.1129 1.03835 28.3302C0.813331 28.5476 0.646048 28.8176 0.551628 29.1158C0.457208 29.4141 0.43863 29.7312 0.497574 30.0384C0.883157 32.0657 1.79927 33.9545 3.15256 35.5125C4.50585 37.0704 6.24796 38.2418 8.20136 38.9072C10.1548 39.5726 12.2497 39.7082 14.2726 39.3004C16.2955 38.8925 18.1741 37.9556 19.7171 36.5853C21.26 35.2149 22.4121 33.46 23.056 31.4994C23.6999 29.5388 23.8125 27.4426 23.3823 25.4242C22.9522 23.4059 21.9948 21.5377 20.6075 20.01C19.2203 18.4822 17.4528 17.3495 15.4852 16.7272H15.479Z" fill="#2F2F2F" stroke="#2F2F2F" stroke-width="0.92707" stroke-miterlimit="10"/>
<path d="M11.9753 31.8788C14.194 31.8788 15.9926 30.0802 15.9926 27.8615C15.9926 25.6428 14.194 23.8442 11.9753 23.8442C9.75662 23.8442 7.95801 25.6428 7.95801 27.8615C7.95801 30.0802 9.75662 31.8788 11.9753 31.8788Z" fill="#FF5B35"/>
<path d="M21.5268 3.44239C21.4754 3.4219 21.4342 3.38182 21.4123 3.33097C21.3904 3.28012 21.3897 3.22265 21.4101 3.17122C21.4306 3.1198 21.4707 3.07861 21.5216 3.05674C21.5724 3.03486 21.6299 3.03408 21.6813 3.05457C21.8802 3.13068 22.0707 3.22698 22.2499 3.34196C22.1796 3.07235 22.0636 2.81679 21.9069 2.5864C21.6145 2.1601 21.2308 1.80434 20.7836 1.54499C20.4488 1.34366 20.0835 1.19806 19.702 1.1139C19.4602 1.06047 19.2125 1.03815 18.965 1.04746C19.1591 1.3524 19.2836 1.69636 19.3296 2.05488C19.3884 2.35618 19.4455 2.64202 19.6526 2.86915C19.6897 2.91013 19.7089 2.96417 19.7062 3.01937C19.7034 3.07457 19.6789 3.12641 19.6379 3.1635C19.5969 3.20059 19.5429 3.21987 19.4877 3.21712C19.4325 3.21437 19.3806 3.1898 19.3435 3.14882C19.0562 2.8398 18.9897 2.49215 18.9186 2.13213C18.8801 1.8049 18.7623 1.492 18.5756 1.22051C18.3565 0.955197 18.0699 0.753948 17.7459 0.638005C17.3447 0.486012 16.9187 0.410037 16.4897 0.413963C16.1108 0.412836 15.7342 0.472301 15.3741 0.590106C15.1748 0.65569 14.9848 0.746563 14.8086 0.860502C15.0183 0.939952 15.2179 1.04367 15.4035 1.16953C15.8272 1.446 16.1473 1.85518 16.3136 2.333C16.3343 2.35284 16.3511 2.37644 16.363 2.40253C16.4309 2.55541 16.5374 2.688 16.672 2.78726C16.8399 2.90994 17.029 3.00057 17.2298 3.05457C17.2802 3.07181 17.322 3.10783 17.3466 3.15511C17.3711 3.2024 17.3765 3.25733 17.3616 3.30847C17.3466 3.35961 17.3126 3.40303 17.2664 3.4297C17.2203 3.45637 17.1657 3.46424 17.1139 3.45166C16.8686 3.38389 16.6374 3.27297 16.431 3.1241C16.431 3.25698 16.4171 3.38986 16.4063 3.52428C16.3646 4.02954 16.3213 4.56724 16.7601 5.26718C16.7745 5.29011 16.7843 5.31565 16.7888 5.34234C16.7933 5.36904 16.7926 5.39637 16.7865 5.42277C16.7805 5.44917 16.7693 5.47412 16.7537 5.49621C16.738 5.51829 16.7181 5.53707 16.6952 5.55148C16.6723 5.56589 16.6467 5.57563 16.62 5.58017C16.5933 5.5847 16.566 5.58394 16.5396 5.57791C16.5132 5.57189 16.4883 5.56072 16.4662 5.54505C16.4441 5.52938 16.4253 5.50951 16.4109 5.48658C15.8964 4.66922 15.9474 4.06353 15.9937 3.49184C16.0341 3.20206 16.0262 2.90761 15.9706 2.62039C15.8559 2.16128 15.5708 1.763 15.1733 1.50636C14.7121 1.21214 14.1752 1.05859 13.6282 1.06446C12.9678 1.06136 12.3319 1.31448 11.8544 1.77058C11.6022 2.01322 11.406 2.30799 11.2796 2.6343C11.2766 2.64671 11.2719 2.65867 11.2657 2.66983C11.1726 2.9248 11.125 3.19414 11.1251 3.46557C11.1251 3.52048 11.1033 3.57314 11.0644 3.61197C11.0256 3.6508 10.9729 3.67262 10.918 3.67262C10.8631 3.67262 10.8104 3.6508 10.7716 3.61197C10.7328 3.57314 10.711 3.52048 10.711 3.46557C10.7081 3.28792 10.7226 3.11042 10.7542 2.93559C10.3444 3.13389 9.98387 3.42103 9.69892 3.77614C9.3602 4.19436 9.17336 4.71511 9.16895 5.25327C9.17586 5.61666 9.26248 5.9741 9.42267 6.30036C9.58286 6.62661 9.81271 6.91372 10.096 7.1414C10.7328 7.66767 11.5351 7.95173 12.3612 7.94332C12.5322 7.94318 12.703 7.93183 12.8726 7.90933C12.9344 7.90933 12.9962 7.89079 13.0565 7.87997C12.713 7.40457 12.5276 6.83327 12.5265 6.24678C12.5265 6.19013 12.5265 6.13296 12.5265 6.07527C12.5218 6.05914 12.5187 6.04258 12.5172 6.02583C12.511 5.9589 12.4986 5.89268 12.4801 5.82805C12.3908 5.52912 12.1995 5.27102 11.9393 5.09876C11.6849 4.92258 11.3782 4.83813 11.0694 4.85927C11.004 4.8645 10.9393 4.8764 10.8763 4.8948C10.8241 4.90756 10.769 4.89951 10.7226 4.87236C10.6762 4.84522 10.6422 4.80109 10.6277 4.74933C10.6133 4.69756 10.6195 4.6422 10.6452 4.59496C10.6708 4.54771 10.7138 4.51229 10.7651 4.49616C10.8528 4.47095 10.9429 4.45439 11.0339 4.44672C11.4364 4.41944 11.8364 4.52828 12.1696 4.75574C12.3803 4.89617 12.5597 5.07872 12.6964 5.2919C12.7298 5.20032 12.7679 5.11058 12.8108 5.02305C13.0022 4.63457 13.2752 4.29199 13.6112 4.01872C13.6538 3.98907 13.7061 3.97654 13.7575 3.98362C13.809 3.9907 13.856 4.01687 13.889 4.05695C13.9221 4.09702 13.9389 4.14807 13.9361 4.19995C13.9333 4.25183 13.911 4.30075 13.8738 4.33702C13.5846 4.57354 13.3491 4.86906 13.1832 5.20383C13.0253 5.52662 12.9433 5.88126 12.9437 6.2406C12.9466 6.58438 13.0219 6.92369 13.1646 7.23647C13.3073 7.54926 13.5142 7.82852 13.7719 8.05611C14.3304 8.55241 15.0535 8.82336 15.8006 8.81631C16.2694 8.8173 16.7322 8.71162 17.1541 8.50729C17.4092 8.38547 17.6446 8.22609 17.8525 8.03448C17.8935 7.99719 17.9476 7.97771 18.0029 7.98031C18.0583 7.98292 18.1103 8.00741 18.1476 8.04839C18.1849 8.08937 18.2044 8.14348 18.2018 8.19883C18.1992 8.25417 18.1747 8.30621 18.1337 8.34351C18.0164 8.45395 17.8903 8.55472 17.7567 8.6448C17.6226 8.73734 17.4816 8.81947 17.3349 8.89048C17.2468 8.9322 17.1572 8.97237 17.0645 9.00791C17.4707 9.19891 17.8255 9.48385 18.0997 9.83918C18.5092 10.3722 18.744 11.066 18.812 11.8926C18.8148 12.0719 18.862 12.2476 18.9495 12.4041C18.9608 12.4234 18.9757 12.4403 18.9935 12.4538C19.0112 12.4673 19.0315 12.4772 19.0531 12.4829C19.1071 12.4864 19.161 12.4734 19.2076 12.4458C19.3917 12.3333 19.546 12.178 19.6572 11.9931C19.9266 11.5858 20.1241 11.1353 20.2413 10.6612C20.332 10.3082 20.369 9.94359 20.351 9.5796C20.2969 9.59969 20.2413 9.61823 20.1856 9.63522C20.0394 9.68021 19.8902 9.71481 19.7391 9.73875C19.6846 9.74694 19.6291 9.73315 19.5847 9.70041C19.5404 9.66766 19.5109 9.61865 19.5027 9.56415C19.4945 9.50965 19.5083 9.45412 19.541 9.40979C19.5738 9.36545 19.6228 9.33594 19.6773 9.32775C19.808 9.30866 19.9372 9.27974 20.0636 9.24122C20.1846 9.20317 20.3028 9.1567 20.4174 9.10216C20.6016 9.01368 20.7702 8.89573 20.9165 8.75296C20.9923 8.67611 21.0587 8.59053 21.1142 8.49802C20.9909 8.47882 20.8711 8.44132 20.7589 8.38677C20.5381 8.27467 20.3482 8.11022 20.2057 7.90778C19.9568 7.54503 19.7979 7.12818 19.7422 6.69178C19.702 6.30529 19.5876 5.93019 19.4053 5.58702C19.2184 5.25896 18.9227 5.00649 18.5694 4.87317C18.5425 4.86435 18.5176 4.85008 18.4964 4.83126C18.4752 4.81244 18.4581 4.78946 18.4462 4.76376C18.4342 4.73805 18.4276 4.71016 18.4269 4.68182C18.4262 4.65347 18.4313 4.62528 18.4419 4.59898C18.4525 4.57268 18.4684 4.54885 18.4885 4.52894C18.5087 4.50904 18.5328 4.4935 18.5593 4.48328C18.5857 4.47306 18.614 4.46838 18.6423 4.46953C18.6706 4.47069 18.6984 4.47765 18.724 4.48998C19.0661 4.61978 19.3667 4.83976 19.5939 5.12657C19.6416 5.00743 19.7034 4.89437 19.7777 4.78974C19.938 4.55887 20.1588 4.37658 20.4159 4.26285C20.4408 4.2465 20.469 4.23573 20.4985 4.23129C20.528 4.22685 20.5581 4.22884 20.5868 4.23713C20.6155 4.24541 20.642 4.25979 20.6646 4.27928C20.6872 4.29878 20.7053 4.32292 20.7177 4.35006C20.7301 4.37721 20.7364 4.40671 20.7364 4.43654C20.7363 4.46638 20.7298 4.49585 20.7173 4.52293C20.7047 4.55001 20.6865 4.57407 20.6638 4.59345C20.6411 4.61283 20.6145 4.62708 20.5858 4.63522C20.3988 4.71833 20.2384 4.85147 20.1223 5.01996C20.0015 5.20568 19.9268 5.41758 19.9044 5.63801C20.0354 5.95871 20.1232 6.2954 20.1655 6.63924C20.2081 7.00773 20.3384 7.36063 20.5456 7.66829C20.6482 7.81571 20.785 7.93606 20.9443 8.01903C21.1037 8.0954 21.2827 8.12127 21.4573 8.0932C21.7179 8.04697 21.9643 7.94121 22.1773 7.78417C22.3686 7.64102 22.5396 7.47262 22.6856 7.28356C23.0044 6.86901 23.1818 6.36315 23.1918 5.84031C23.2019 5.31746 23.0439 4.80518 22.7413 4.37873C22.4392 3.95217 22.0162 3.62601 21.5268 3.44239ZM11.0107 6.60061C11.0516 6.62996 11.0803 6.67317 11.0916 6.72218C11.103 6.77118 11.096 6.82263 11.0722 6.86691C11.0484 6.91119 11.0092 6.94528 10.9621 6.96281C10.9149 6.98034 10.863 6.98011 10.816 6.96217C10.5751 6.82822 10.3588 6.65423 10.1764 6.44765C9.99048 6.2399 9.84107 6.0022 9.73446 5.74462C9.72075 5.71901 9.71259 5.69079 9.71049 5.66182C9.7084 5.63285 9.71243 5.60375 9.72232 5.57644C9.73221 5.54912 9.74774 5.5242 9.76789 5.50327C9.78805 5.48235 9.81238 5.46591 9.83931 5.45501C9.86623 5.4441 9.89515 5.43899 9.92419 5.44C9.95322 5.44101 9.98171 5.44811 10.0078 5.46085C10.0339 5.4736 10.0571 5.49169 10.0757 5.51396C10.0944 5.53623 10.1081 5.56217 10.1161 5.59011C10.203 5.80592 10.3258 6.00548 10.4792 6.18034C10.6316 6.34922 10.8113 6.49129 11.0107 6.60061ZM12.8355 2.04097C12.8108 2.05547 12.7833 2.06468 12.7548 2.068C12.7263 2.07133 12.6975 2.06871 12.6701 2.0603C12.6427 2.05189 12.6173 2.03788 12.5956 2.01915C12.5739 2.00043 12.5563 1.9774 12.5439 1.95152C12.5316 1.92565 12.5247 1.89749 12.5239 1.86883C12.523 1.84017 12.528 1.81164 12.5387 1.78504C12.5494 1.75845 12.5655 1.73436 12.586 1.71432C12.6065 1.69427 12.631 1.6787 12.6578 1.6686C13.0989 1.4644 13.5937 1.40647 14.0701 1.50327C14.5302 1.58102 14.9449 1.82722 15.2335 2.19394C15.2608 2.23851 15.2702 2.29173 15.2598 2.34294C15.2495 2.39415 15.2202 2.43955 15.1777 2.47004C15.1353 2.50053 15.0829 2.51387 15.0311 2.50736C14.9793 2.50086 14.9318 2.475 14.8982 2.43498C14.6709 2.15343 14.3471 1.96624 13.9897 1.90964C13.6008 1.82986 13.1966 1.87585 12.8355 2.04097ZM16.4464 8.07466C15.8919 8.19956 15.312 8.14546 14.7901 7.92014C14.2963 7.674 13.9024 7.26533 13.6745 6.76285C13.6499 6.71368 13.6459 6.65675 13.6633 6.60459C13.6806 6.55243 13.718 6.50932 13.7672 6.48473C13.8164 6.46014 13.8733 6.4561 13.9255 6.47348C13.9776 6.49087 14.0207 6.52826 14.0453 6.57744C14.2343 6.99702 14.5615 7.33902 14.9724 7.54623C15.4172 7.73532 15.9102 7.77965 16.3816 7.67292C16.4353 7.66427 16.4903 7.67714 16.5346 7.70875C16.579 7.74036 16.6091 7.78816 16.6184 7.8418C16.6278 7.89544 16.6156 7.9506 16.5846 7.99534C16.5536 8.04008 16.5061 8.0708 16.4526 8.08084L16.4464 8.07466ZM21.3507 7.52923C21.3246 7.53694 21.2972 7.53944 21.2702 7.53658C21.2432 7.53373 21.2169 7.52558 21.1931 7.51259C21.1692 7.49961 21.1481 7.48205 21.131 7.46091C21.1139 7.43977 21.1011 7.41547 21.0934 7.3894C21.0857 7.36332 21.0832 7.33598 21.086 7.30895C21.0889 7.28191 21.097 7.25569 21.11 7.2318C21.123 7.20792 21.1406 7.18682 21.1617 7.16972C21.1829 7.15262 21.2071 7.13984 21.2332 7.13213C21.9996 6.90037 22.3308 6.35957 22.2267 5.50976C22.22 5.45526 22.2351 5.4003 22.2689 5.35698C22.3027 5.31366 22.3522 5.28553 22.4067 5.27877C22.4612 5.272 22.5162 5.28717 22.5595 5.32093C22.6028 5.35468 22.631 5.40427 22.6377 5.45877C22.7706 6.54035 22.3416 7.23051 21.3507 7.52923Z" fill="#FF5B35"/>
<path d="M23.0082 7.52924C22.8675 7.7162 22.7052 7.88581 22.5246 8.03449C22.5138 8.04786 22.5013 8.0598 22.4875 8.07003L22.4056 8.1272C22.1451 8.31953 21.8556 8.46922 21.548 8.57065C21.4628 8.74796 21.3472 8.90901 21.2066 9.04654C21.0689 9.18332 20.9129 9.30032 20.743 9.39419C20.7889 9.85221 20.7528 10.3147 20.6364 10.7601C20.5102 11.2818 20.2959 11.7782 20.0029 12.2279C19.8522 12.4711 19.6443 12.6738 19.3972 12.8182C19.269 12.8898 19.1207 12.917 18.9754 12.8954C18.8999 12.881 18.828 12.8514 18.7643 12.8084C18.7005 12.7654 18.6462 12.7098 18.6046 12.6451C18.4738 12.4289 18.4014 12.1824 18.3945 11.9297C18.3327 11.1819 18.1256 10.5638 17.7671 10.0972C17.4167 9.65099 16.9273 9.33451 16.3765 9.19796C16.1864 9.22822 15.9943 9.24372 15.8018 9.24432C14.9515 9.25086 14.1292 8.94077 13.4949 8.37442C13.4485 8.3327 13.4037 8.28943 13.3589 8.24463C13.2174 8.27955 13.074 8.30638 12.9294 8.32497C12.742 8.35101 12.553 8.36392 12.3639 8.3636C11.4382 8.37364 10.5388 8.05561 9.82524 7.46589C9.49462 7.19879 9.22706 6.86196 9.04169 6.47948C8.85633 6.09699 8.75773 5.67829 8.75293 5.25328C8.75616 4.62059 8.97406 4.00773 9.37098 3.51502C9.77664 3.01453 10.3107 2.63373 10.9161 2.41335C11.0657 2.05719 11.2865 1.73539 11.565 1.46774C12.1194 0.940087 12.8563 0.647211 13.6216 0.650374C13.8535 0.649953 14.0849 0.672728 14.3123 0.71836C14.5842 0.485712 14.8992 0.308789 15.2393 0.197655C15.6461 0.06365 16.0719 -0.00315112 16.5001 -0.00012C16.9809 -0.00396264 17.4582 0.0814343 17.9078 0.251734C18.1662 0.350983 18.4071 0.490765 18.6216 0.665826C19.0123 0.606805 19.4106 0.621479 19.7959 0.709089C20.2193 0.804408 20.6247 0.967177 20.9964 1.19117C21.4957 1.48199 21.9238 1.88052 22.2495 2.35773C22.5258 2.75644 22.6862 3.22385 22.7131 3.70816C22.8473 3.83896 22.9693 3.9817 23.0777 4.13461C23.4339 4.63293 23.6198 5.23285 23.6078 5.84525C23.5959 6.45766 23.3867 7.04986 23.0113 7.53387L23.0082 7.52924Z" fill="#FF5B35"/>
<path d="M15.0569 4.87336C15.0558 4.98424 15.0454 5.09484 15.026 5.20401L14.8189 6.37984H14.2148L14.4218 5.20092C14.4382 5.12368 14.447 5.04502 14.4481 4.96606C14.4504 4.92607 14.4446 4.88604 14.431 4.84834C14.4175 4.81064 14.3965 4.77606 14.3693 4.74666C14.3389 4.71846 14.3031 4.69668 14.2641 4.68261C14.225 4.66854 14.1836 4.66247 14.1422 4.66476C14.0767 4.66387 14.0119 4.67723 13.9521 4.70391C13.8923 4.73059 13.8391 4.76996 13.7961 4.81928C13.6949 4.94349 13.6316 5.09422 13.6137 5.25345L13.4144 6.37366H12.8242L13.0312 5.19474C13.0476 5.11749 13.0564 5.03884 13.0575 4.95988C13.0604 4.88119 13.0321 4.80454 12.9787 4.74666C12.9483 4.71846 12.9125 4.69668 12.8735 4.68261C12.8344 4.66854 12.793 4.66247 12.7516 4.66476C12.6861 4.66377 12.6212 4.67708 12.5614 4.70377C12.5017 4.73046 12.4484 4.76988 12.4055 4.81928C12.2977 4.94539 12.2285 5.09987 12.2061 5.26427L12.0115 6.37984H11.415L11.7967 4.19814H12.3189L12.3282 4.44536C12.404 4.36186 12.4946 4.29322 12.5955 4.24295C12.7045 4.19329 12.8234 4.16899 12.9432 4.17187C13.0768 4.16996 13.2089 4.20073 13.3279 4.26149C13.4412 4.31983 13.5291 4.41768 13.5751 4.53652C13.6639 4.42411 13.7769 4.33325 13.9058 4.27076C14.0336 4.20576 14.1749 4.17187 14.3183 4.17187C14.5074 4.16538 14.693 4.22432 14.8437 4.33874C14.9185 4.405 14.9768 4.48787 15.0138 4.58071C15.0508 4.67355 15.0656 4.77378 15.0569 4.87336Z" fill="white"/>
<path d="M16.1808 4.19817L15.7991 6.37988H15.2012L15.5828 4.19817H16.1808ZM16.3353 3.60484C16.3362 3.6533 16.3268 3.70139 16.3076 3.74589C16.2884 3.7904 16.2599 3.83028 16.224 3.86288C16.1896 3.89661 16.1487 3.92314 16.1039 3.94091C16.0591 3.95869 16.0111 3.96735 15.9629 3.9664C15.9201 3.96809 15.8774 3.96117 15.8373 3.94604C15.7972 3.93091 15.7606 3.90789 15.7296 3.87833C15.7005 3.8486 15.6777 3.81329 15.6625 3.77452C15.6474 3.73576 15.6403 3.69434 15.6415 3.65274C15.6404 3.60478 15.6495 3.55713 15.6682 3.51292C15.6868 3.46871 15.7146 3.42895 15.7497 3.39625C15.7841 3.36238 15.8249 3.33576 15.8697 3.31797C15.9146 3.30019 15.9626 3.29161 16.0108 3.29273C16.0536 3.29104 16.0963 3.29796 16.1364 3.31309C16.1765 3.32822 16.2131 3.35125 16.2441 3.3808C16.2725 3.41061 16.2946 3.44578 16.3092 3.48425C16.3238 3.52272 16.3306 3.56372 16.3291 3.60484H16.3353Z" fill="white"/>
<path d="M18.5563 4.92437C18.5555 5.02241 18.5457 5.12017 18.5269 5.2164L18.323 6.37987H17.725L17.9274 5.22103C17.9412 5.14818 17.9485 5.07423 17.949 5.00008C17.9522 4.95477 17.9457 4.90931 17.93 4.8667C17.9142 4.82409 17.8897 4.78529 17.8579 4.75286C17.7859 4.69018 17.692 4.65853 17.5967 4.66479C17.5241 4.66116 17.4515 4.67306 17.3838 4.69971C17.3162 4.72635 17.255 4.76712 17.2043 4.8193C17.0927 4.95039 17.0228 5.11179 17.0034 5.28284L16.8118 6.37833H16.2139L16.5955 4.19662H17.1178V4.44384C17.2032 4.35525 17.3061 4.28534 17.4199 4.23853C17.5337 4.19173 17.656 4.16904 17.7791 4.1719C17.9795 4.16495 18.1759 4.22897 18.3338 4.35268C18.4125 4.42432 18.4735 4.51321 18.5121 4.6124C18.5507 4.71159 18.5658 4.81837 18.5563 4.92437Z" fill="white"/>
<path d="M20.8595 6.37979H20.365L20.3511 6.09549C20.2734 6.19584 20.1728 6.27621 20.0578 6.32995C19.9428 6.38369 19.8167 6.40925 19.6898 6.40451C19.5305 6.4076 19.3736 6.36577 19.2369 6.28379C19.1003 6.20181 18.9895 6.083 18.9173 5.94098C18.8397 5.79005 18.8005 5.62238 18.8029 5.45272C18.7991 5.22686 18.8522 5.00367 18.9574 4.80377C19.0559 4.61559 19.2012 4.45594 19.3793 4.34023C19.5533 4.22798 19.7562 4.16892 19.9633 4.17027C20.0861 4.15944 20.2096 4.18066 20.3217 4.23185C20.4338 4.28303 20.5307 4.36244 20.603 4.4623L20.7869 3.40698H21.3848L20.8595 6.37979ZM20.4083 5.5377C20.4611 5.42235 20.488 5.29683 20.4871 5.16996C20.4957 5.03335 20.4521 4.89858 20.365 4.79295C20.3237 4.74886 20.2733 4.71428 20.2172 4.69161C20.1612 4.66893 20.1009 4.6587 20.0406 4.66162C19.9221 4.65961 19.8061 4.69591 19.7099 4.76514C19.6126 4.83606 19.5358 4.93149 19.4874 5.04172C19.4348 5.15658 19.4079 5.28156 19.4086 5.40791C19.3996 5.54405 19.442 5.67862 19.5276 5.78492C19.5684 5.82933 19.6185 5.86425 19.6743 5.88721C19.7301 5.91017 19.7902 5.92061 19.8505 5.9178C19.9696 5.91904 20.086 5.88223 20.1827 5.81273C20.2802 5.74262 20.357 5.64764 20.4052 5.5377H20.4083Z" fill="white"/>
</g>
<defs>
<clipPath id="clip0_3458_14954">
<rect width="24.1038" height="40" fill="white"/>
</clipPath>
</defs>
</svg>
